<?xml version="1.0" encoding="iso-8859-1"?>
<!-- Generator: Adobe Illustrator 19.0.0, SVG Export Plug-In . SVG Version: 6.00 Build 0)  -->
<svg version="1.1" id="Layer_1" xmlns="http://www.w3.org/2000/svg" xmlns:xlink="http://www.w3.org/1999/xlink" x="0px" y="0px"
	 viewBox="0 0 512 512" style="enable-background:new 0 0 512 512;" xml:space="preserve">
<g transform="translate(1 1)">
	<g>
		<g>
			<path d="M451.267,144.067h-92.16c-2.56,0-5.12-1.707-5.12-3.413l-9.387-29.867c-3.413-11.093-13.653-17.92-24.747-17.92H191
				c-11.947,0-21.333,6.827-24.747,17.92l-9.387,29.867c-1.707,1.707-3.413,3.413-5.973,3.413h-92.16
				C25.453,144.067-1,170.52-1,203.8v153.6c0,33.28,26.453,59.733,59.733,59.733h392.533c33.28,0,59.733-26.453,59.733-59.733V203.8
				C511,170.52,484.547,144.067,451.267,144.067z M493.933,357.4c0,23.893-18.773,42.667-42.667,42.667H58.733
				c-23.893,0-42.667-18.773-42.667-42.667V203.8c0-23.893,18.773-42.667,42.667-42.667h92.16c10.24,0,17.92-5.973,22.187-15.36
				l9.387-29.867c1.707-3.413,5.12-5.973,8.533-5.973h128c4.267,0,7.68,2.56,8.533,5.973l10.24,30.72
				c3.413,8.533,11.947,14.507,21.333,14.507h92.16c23.893,0,42.667,18.773,42.667,42.667V357.4z"/>
			<path d="M297.667,333.507c-11.947,10.24-27.307,15.36-42.667,15.36c-37.547,0-68.267-30.72-68.267-68.267v-5.12l2.56,2.56
				c1.707,1.707,3.413,2.56,5.973,2.56s4.267-0.853,5.973-2.56c3.413-3.413,3.413-8.533,0-11.947l-15.607-15.606
				c-1.395-2.509-4.034-4.02-7.434-4.02s-6.038,1.511-7.434,4.02l-15.606,15.606c-3.413,3.413-3.413,8.533,0,11.947
				s8.533,3.413,11.947,0l2.56-2.56v5.12c0,46.933,38.4,85.333,85.333,85.333c19.627,0,38.4-6.827,53.76-19.627
				c3.413-2.56,3.413-8.533,0.853-11.947S301.08,330.947,297.667,333.507z"/>
			<path d="M342.893,266.093l-3.419,3.419c-5.855-41.331-41.594-73.392-84.475-73.392c-19.627,0-38.4,6.827-53.76,18.773
				c-3.413,2.56-3.413,8.533-0.853,11.947c2.56,3.413,8.533,3.413,11.947,0.853c11.947-10.24,26.453-15.36,42.667-15.36
				c33.013,0,60.738,23.752,66.955,55.009l-1.249-1.249c-3.413-3.413-8.533-3.413-11.947,0s-3.413,8.533,0,11.947l15.607,15.607
				c1.395,2.509,4.034,4.02,7.433,4.02c3.676,0,6.463-1.764,7.748-4.335l15.292-15.292c3.413-3.413,3.413-8.533,0-11.947
				S346.307,262.68,342.893,266.093z"/>
		</g>
	</g>
</g>
<g>
</g>
<g>
</g>
<g>
</g>
<g>
</g>
<g>
</g>
<g>
</g>
<g>
</g>
<g>
</g>
<g>
</g>
<g>
</g>
<g>
</g>
<g>
</g>
<g>
</g>
<g>
</g>
<g>
</g>
</svg>
